<svg xmlns="http://www.w3.org/2000/svg" viewBox="0 0 64 64">
  <defs>
    <linearGradient id="bg" x1="0" y1="0" x2="1" y2="1">
      <stop offset="0%" stop-color="#06b6d4" />
      <stop offset="100%" stop-color="#2563eb" />
    </linearGradient>
  </defs>
  <rect width="64" height="64" rx="14" fill="url(#bg)" />
  <path d="M20 10h18l10 10v32a4 4 0 0 1-4 4H20a4 4 0 0 1-4-4V14a4 4 0 0 1 4-4z" fill="#ffffff" />
  <path d="M38 10v10h10" fill="#dbeafe" />
  <rect x="23" y="28" width="18" height="2.6" rx="1.3" fill="#3b82f6" />
  <rect x="23" y="34" width="18" height="2.6" rx="1.3" fill="#60a5fa" />
  <rect x="23" y="40" width="12" height="2.6" rx="1.3" fill="#93c5fd" />
  <circle cx="43" cy="45" r="8" fill="#1d4ed8" />
  <path d="M39.6 45l2.2 2.3 4.6-4.7" fill="none" stroke="#ffffff" stroke-width="2.2" stroke-linecap="round" stroke-linejoin="round" />
</svg>
